<svg xmlns="http://www.w3.org/2000/svg" xmlns:xlink="http://www.w3.org/1999/xlink" viewBox="0 0 460.63 310.86"><defs><style>.cls-1,.cls-2{fill:none;}.cls-2,.cls-3{clip-path:url(#clip-path);}.cls-4{fill:#6cb33f;}.cls-5{fill:#7ac143;}.cls-6{fill:#00b274;}.cls-7{fill:#00703c;}.cls-8{fill:#b4d88b;}.cls-9{fill:#65c294;}</style><clipPath id="clip-path"><rect class="cls-1" y="0.01" width="298.79" height="212.55"/></clipPath></defs><title>Asset 1</title><g id="Layer_2" data-name="Layer 2"><g id="Layer_1-2" data-name="Layer 1"><g id="Artwork_1" data-name="Artwork 1"><g class="cls-3"><g class="cls-3"><path class="cls-4" d="M97.23,139.43c-.1-.26-10.13-25.93-49.43-56.32l-.72-.56.82-.4C74.06,69.49,113.36,53.34,152,48.35l.21,0,.18.12c.33.23,33.46,23.07,67.59,47.18l1.22.86-1.49.16c-37.88,4.16-89.73,15-121.61,43l-.61.54Z"/><path class="cls-5" d="M48.65,83.05l-.5-.39.5.39"/><path class="cls-5" d="M258.83,92.92C216.73,62.34,160.46,24.35,159.9,24l-.19-.13-.22,0c-54.86,9-100.35,30-128.85,46l.28.49-.31.47c6.15,4.07,11.85,8.14,17,12.1l.57-.28c28.66-13.88,66.6-28.93,104-33.74,0,0,33.07,22.79,67.58,47.18l.7.49c12.15-1.33,25-2.23,38.13-2.64l0-.57Z"/><path class="cls-6" d="M250.86,117.63c-9.36-6.75-19.21-13.79-30.32-21.63-.23,0-.41,0-.86.1-42,4.61-91.12,16.08-121.92,43.13,0,0-9.7-25.7-49.61-56.57l-.53-.38C39,86.47,30.55,90.85,22.08,95.57l.28.5-.35.45c63.83,50.11,63.82,79.7,63.82,80l0,1.71,1.06-1.34c36.49-46.3,118.24-56.35,163.72-58.22l0-.57Z"/><path class="cls-7" d="M86.39,176.52s.88-29.49-64-80.45C8.42,103.8,0,109.31,0,109.31c73.71,61.21,75.32,103.25,75.32,103.25,45.7-71.86,208.53-69.9,208.53-69.9-8.41-6.51-20.22-15.14-33.32-24.58-48.67,2-128,12.62-164.14,58.44"/><path class="cls-8" d="M159.58,24.44s56.34,38,98.92,68.94c24-.74,40.29.39,40.29.39C267.67,70.78,232.46,43.92,167.06,0,73,17.47,15,60.45,15,60.45c5.7,3.29,11,6.65,16,9.92,26.3-14.77,72.62-36.72,128.66-45.93"/><path class="cls-9" d="M48.15,82.66q-7.78-6-17.23-12.29C16,78.79,7.46,84.89,7.46,84.89c5.34,3.84,10.27,7.56,14.9,11.18,7.23-4,16-8.65,25.79-13.41"/><path class="cls-9" d="M258.5,93.38c-11.49.37-24.78,1.15-38.81,2.71,10.46,7.38,21,14.91,30.84,22,24.17-1,40.77.1,40.77.1-8.4-6.79-20-15.49-32.8-24.8"/></g></g></g><path d="M171.17,245c1.11-14,10.27-28.44,25.88-28.44,16.13,0,25.44,13.68,25.7,28.44Zm56.76,4.5c1-20.08-8.87-37.46-30.88-37.46-21.22,0-31.33,18.72-31.07,38-.25,19.41,10.55,35.54,31.07,35.54,16.67,0,27.62-9,30.37-25.43H222.2c-2.46,13-11.87,20.91-25.14,20.91-17.39,0-26.16-15-25.88-31.59Z"/><path d="M235,284h5.18V246c0-17.25,9.59-29.41,25.32-29.41,19.17,0,20,15.7,20,23V284h5.2v-43.5c0-8.63-.26-28.46-25-28.46-11,0-21.6,6.17-25.16,16.68h-.29v-15H235V284Z"/><path d="M352.42,213.71v14.63h-.27c-3.85-10.52-14.5-16.27-25.45-16.27-19.82,0-30.36,16-30.36,34.63,0,19.53,9.72,34.71,30.36,34.71,11.92,0,20.53-5.59,25.45-16h.27v16.15c0,4.66-.4,24.78-25,24.78-11.49,0-21.32-4.94-22.41-17.39h-5.2c.8,16.29,12.45,21.9,27.48,21.9,30.37,1,30.37-25,30.37-30.49V213.72h-5.2Zm-25.73,2.88c17.23,0,25.56,14.35,25.56,30.11s-8.45,30.2-25.56,30.2c-16.55,0-25.19-13.67-25.19-30.2,0-14.94,8.23-30.11,25.19-30.11Z"/><path d="M373,213.71H367.8V284H373V245.55c.53-10.51,2.73-14.88,7.93-20.22a23.83,23.83,0,0,1,19.43-6.85v-5.22c-12.71-.54-24.2,6.85-26.94,16H373V213.71Z"/><path d="M401.27,248.83c0-16.78,9.43-32.24,27.07-32.24s27.09,15.46,27.09,32.24-9.43,32.29-27.09,32.29-27.07-15.44-27.07-32.29Zm-5.22,0c0,20,11.64,36.81,32.29,36.81s32.29-16.82,32.29-36.81S449,212.07,428.34,212.07s-32.29,16.83-32.29,36.76Z"/></g></g></svg>