<?xml version="1.0" encoding="utf-8"?>
<!-- Generator: Adobe Illustrator 22.1.0, SVG Export Plug-In . SVG Version: 6.00 Build 0)  -->
<svg version="1.1" id="Layer_1" xmlns="http://www.w3.org/2000/svg" xmlns:xlink="http://www.w3.org/1999/xlink" x="0px" y="0px"
	 viewBox="0 0 271.3 271.1" style="enable-background:new 0 0 271.3 271.1;" xml:space="preserve">
<g>
	<path d="M59.7,0C65.1,0,70.2,1.7,75,5.2l0.7,0.6l0.6,0.6l41.6,42.9l0.7,0.6l-0.7,0.7c4.8,3.9,7.2,9,7.2,15.3
		c0,6.3-2.2,11.6-6.5,15.9l-20.8,20.8c7.4,16.9,17.1,31.2,29.3,42.9c12.1,11.7,26.2,21.2,42.2,28.6l20.2-20.2l0.6-0.6
		c4.3-3.9,9.8-5.9,16.3-5.9s11.9,2,16.3,5.9l0.6,1.3l41.6,41.6c4.3,4.3,6.5,9.8,6.5,16.3s-2.2,11.9-6.5,16.3l-31.9,32.5h-0.6
		c-10.8,9.5-23,12.1-36.4,7.8c-46.8-18.6-86.2-43.8-118.3-75.4C42.9,158.6,17.8,119.2,2.2,75.4c-4.8-13.9-1.7-25.6,9.1-35.1v-0.6
		L43.8,6.5V5.9l0.6-0.6C49.2,1.7,54.3,0,59.7,0z M59.7,20.8c-0.6,0-1.4,0.4-2.3,1.3L25.6,54v0.6c-4.3,3.5-5.6,8-3.9,13.6
		C36,109,59.6,145.8,92.5,178.8c29.5,29.5,66.1,52.9,109.9,70.2c6.1,2.2,11.5,1.1,16.3-3.3l31.9-31.2c0.9-1.3,0.9-2.4,0-3.3
		L207.6,169c-0.9-1.3-1.7-1.3-2.6,0l-26,26l-5.2,4.6l-6.5-3.3c-19.1-7.8-36.6-19.1-52.7-33.8l-2-2c-7.8-6.9-14.7-15.1-20.8-24.4
		c-6.1-9.3-10.4-17-13-23.1l-3.9-8.5l-2-6.5l4.6-4.5l26-26c1.3-0.9,1.7-1.7,1.3-2.6h-0.7l-0.6-0.6L62,22.1
		C61.1,21.2,60.4,20.8,59.7,20.8z"/>
</g>
</svg>
