<?xml version="1.0" encoding="utf-8"?>
<!-- Generator: Adobe Illustrator 22.1.0, SVG Export Plug-In . SVG Version: 6.00 Build 0)  -->
<svg version="1.1" id="Layer_1" xmlns="http://www.w3.org/2000/svg" xmlns:xlink="http://www.w3.org/1999/xlink" x="0px" y="0px"
	 viewBox="0 0 292.2 292.2" style="enable-background:new 0 0 292.2 292.2;" xml:space="preserve">
<g>
	<path d="M43,43C71.7,14.3,106,0,146.1,0c40.1,0,74.4,14.3,103.1,43c28.7,28.7,43,63,43,103.1c0,40.1-14.3,74.5-43,103.1
		c-28.7,28.7-63,43-103.1,43c-40.1,0-74.5-14.3-103.1-43c-28.7-28.7-43-63-43-103.1C0,106,14.3,71.7,43,43z M25.1,155.2
		c2,24.9,10.7,47.1,25.9,66.6c15.2,19.5,34.2,32.9,57.1,40l-34.2-42.6H59.4l-22.8-24.4v-25.9L25.1,155.2z M146.1,24.4l-9.9,0.8
		l26.6,2.3l6.8,27.4l-36.5,7.6l-9.9-13.7L102,53.3l7.6,32l-48.7,22.8l-32.7,25.9l11.4,24.4h45.7l48.7,36.5l-12.2,48.7l12.9,23.6
		c5.6,0.5,9.4,0.8,11.4,0.8c18.3,0,35.8-4.1,52.5-12.2l19-60.9c-5.6-14.2-8.9-21.3-9.9-21.3l-25.1,3.8l-24.4-19l12.2-36.5l21.3-16
		l21.3-3l19.8,12.2l7.6-15.2l-32-10.7l-26.6,8.4l-2.3-25.1l10.7-9.1l13.7,5.3l-3-24.4l10.7-0.8C191.3,30.7,169.4,24.4,146.1,24.4z
		 M132.4,25.1c-10.2,1-19.5,3.3-28.2,6.8l9.1,1.5L132.4,25.1z"/>
</g>
</svg>
