<?xml version="1.0" encoding="utf-8"?>
<!-- Generator: Adobe Illustrator 22.1.0, SVG Export Plug-In . SVG Version: 6.00 Build 0)  -->
<svg version="1.1" id="Layer_1" xmlns="http://www.w3.org/2000/svg" xmlns:xlink="http://www.w3.org/1999/xlink" x="0px" y="0px"
	 viewBox="0 0 325 325" style="enable-background:new 0 0 325 325;" xml:space="preserve">
<g>
	<g>
		<path d="M325,311.4L311.4,325L210,223.6c-5.6,4.8-11.6,9.1-17.9,13c-6.3,3.9-12.9,7.2-19.8,9.8c-6.9,2.6-14.2,4.7-21.8,6.2
			c-7.6,1.5-15.3,2.3-23.1,2.3c-17.8,0-34.3-3.4-49.7-10.1c-15.4-6.7-28.8-15.8-40.3-27.3c-11.5-11.5-20.6-25-27.3-40.6
			C3.4,161.2,0,144.7,0,127.4c0-8.7,0.8-17,2.3-25c1.5-8,3.9-15.9,7.2-23.7c3.3-7.8,7.2-15.2,11.7-22.1C25.7,49.6,31,43.1,37,37.1
			c6.1-5.6,12.6-10.8,19.5-15.6c6.9-4.8,14.2-8.7,21.8-11.7c7.6-3,15.5-5.4,23.7-7.1c8.2-1.7,16.7-2.6,25.4-2.6
			c17.3,0,33.8,3.4,49.4,10.1c15.6,6.7,29.1,15.8,40.6,27.3c11.5,11.5,20.6,24.9,27.3,40.3c6.7,15.4,10.1,32,10.1,49.7
			c0,7.8-0.8,15.5-2.3,23.1c-1.5,7.6-3.6,14.8-6.2,21.8c-2.6,6.9-5.9,13.5-9.8,19.8c-3.9,6.3-8.2,12.2-13,17.9L325,311.4z
			 M127.4,235.3c14.7,0,28.6-2.9,41.6-8.8c13-5.8,24.4-13.7,34.1-23.4s17.4-21.1,23.1-34.1c5.6-13,8.5-26.9,8.5-41.6
			c0-14.7-2.8-28.7-8.5-41.9c-5.6-13.2-13.3-24.7-23.1-34.5S182,33.6,169,28c-13-5.6-26.9-8.5-41.6-8.5c-7.4,0-14.5,0.8-21.5,2.3
			C99,23.3,92.3,25.4,85.8,28s-12.7,5.9-18.5,9.8s-11.2,8.5-15.9,13.7c-5.2,5.2-9.8,10.7-13.7,16.6c-3.9,5.8-7.3,11.9-10.1,18.2
			c-2.8,6.3-4.9,12.9-6.2,19.8c-1.3,6.9-2,14.1-2,21.5c0,14.7,2.8,28.7,8.5,41.9c5.6,13.2,13.3,24.6,23.1,34.1
			c9.8,9.5,21.2,17.2,34.5,23.1C98.7,232.4,112.7,235.3,127.4,235.3z"/>
	</g>
</g>
</svg>
